<svg viewBox="0 0 100 100" fill="none" xmlns="http://www.w3.org/2000/svg" id="bird-academy-icon">
  <defs>
    <linearGradient id="shieldBg" x1="0" y1="0" x2="100" y2="100" gradientUnits="userSpaceOnUse">
      <stop offset="0%" stop-color="#1F2E3D"/>
      <stop offset="60%" stop-color="#141E28"/>
      <stop offset="100%" stop-color="#0B1117"/>
    </linearGradient>
    <linearGradient id="shieldBorder" x1="0" y1="0" x2="100" y2="100" gradientUnits="userSpaceOnUse">
      <stop offset="0%" stop-color="#5C6BC0"/>
      <stop offset="50%" stop-color="#3F51B5"/>
      <stop offset="100%" stop-color="#1F2E3D"/>
    </linearGradient>
    <linearGradient id="birdGrad" x1="20" y1="20" x2="80" y2="80" gradientUnits="userSpaceOnUse">
      <stop offset="0%" stop-color="#FFE082"/>
      <stop offset="40%" stop-color="#FFB300"/>
      <stop offset="100%" stop-color="#FF8F00"/>
    </linearGradient>
    <linearGradient id="wingGrad" x1="35" y1="35" x2="75" y2="75" gradientUnits="userSpaceOnUse">
      <stop offset="0%" stop-color="#7986CB"/>
      <stop offset="100%" stop-color="#3F51B5"/>
    </linearGradient>
    <filter id="goldGlow" x="-10%" y="-10%" width="120%" height="120%">
      <feDropShadow dx="0" dy="2" stdDeviation="2" flood-color="#FFB300" flood-opacity="0.3"/>
    </filter>
  </defs>

  <!-- Hexagonal Aviary Shield -->
  <polygon points="50,4 92,26 92,74 50,96 8,74 8,26" fill="url(#shieldBg)" stroke="url(#shieldBorder)" stroke-width="3" stroke-linejoin="round"/>
  
  <!-- Digital Aviary Grid Lines -->
  <path d="M50,4 L50,96 M8,26 L92,74 M8,74 L92,26" stroke="#3F51B5" stroke-width="0.75" stroke-opacity="0.35" stroke-dasharray="2 2"/>
  
  <!-- Inner Precision Ring -->
  <polygon points="50,14 84,32 84,68 50,86 16,68 16,32" fill="none" stroke="#5C6BC0" stroke-width="1" stroke-opacity="0.3"/>
  
  <!-- Stylized Songbird Silhouette -->
  <!-- Body & Head -->
  <path d="M32,58 C30,50 34,36 44,30 C49,27 57,25 64,28 C68,30 73,35 72,40 C71,44 67,46 64,48 C58,52 52,58 48,68 C42,66 36,63 32,58 Z" fill="url(#birdGrad)" filter="url(#goldGlow)"/>
  
  <!-- Wing Layer -->
  <path d="M44,42 C52,38 66,42 74,52 C70,58 60,63 50,60 C46,55 44,48 44,42 Z" fill="url(#wingGrad)" opacity="0.95"/>
  
  <!-- Beak -->
  <polygon points="72,36 83,39 72,42" fill="#FFB300"/>
  
  <!-- Eye -->
  <circle cx="63" cy="33" r="2" fill="#1F2E3D"/>
  <circle cx="63.5" cy="32.5" r="0.6" fill="#FFFFFF"/>
  
  <!-- Bague / Genetic Band -->
  <rect x="43" y="68" width="6" height="4" rx="1" fill="#3F51B5" stroke="#FFB300" stroke-width="0.6"/>
  
  <!-- Data Baseline / Perch -->
  <line x1="24" y1="72" x2="76" y2="72" stroke="#5C6BC0" stroke-width="2.5" stroke-linecap="round"/>
</svg>